<svg width="176" height="69" viewBox="0 0 176 69" fill="none" xmlns="http://www.w3.org/2000/svg">
<rect width="176" height="69" rx="3" fill="#303639"/>
<g clip-path="url(#clip0_2992_767)">
<path d="M40.087 33.8131L26.2918 19.9795L43.8438 30.0563L40.087 33.8131ZM22.6902 19.1667C21.8774 19.5923 21.3334 20.3667 21.3334 21.3747V48.9587C21.3334 49.9667 21.8774 50.7411 22.6902 51.1667L38.7334 35.1635L22.6902 19.1667ZM49.271 33.2691L45.5894 31.1379L41.4822 35.1699L45.5894 39.2019L49.3462 37.0707C50.471 36.1763 50.471 34.1635 49.271 33.2691ZM26.2918 50.3603L43.8438 40.2835L40.087 36.5267L26.2918 50.3603Z" fill="white"/>
</g>
<path d="M74.4375 21.5C74.3516 21.237 74.2383 21.0013 74.0977 20.793C73.9596 20.582 73.7943 20.4023 73.6016 20.2539C73.4115 20.1055 73.1953 19.9922 72.9531 19.9141C72.7109 19.8359 72.4453 19.7969 72.1562 19.7969C71.6823 19.7969 71.2513 19.9193 70.8633 20.1641C70.4753 20.4089 70.1667 20.7695 69.9375 21.2461C69.7083 21.7227 69.5938 22.3073 69.5938 23C69.5938 23.6927 69.7096 24.2773 69.9414 24.7539C70.1732 25.2305 70.487 25.5911 70.8828 25.8359C71.2786 26.0807 71.724 26.2031 72.2188 26.2031C72.6771 26.2031 73.0807 26.1055 73.4297 25.9102C73.7813 25.7122 74.0547 25.4336 74.25 25.0742C74.4479 24.7122 74.5469 24.2865 74.5469 23.7969L74.8438 23.8594H72.4375V23H75.4844V23.8594C75.4844 24.5182 75.3438 25.0911 75.0625 25.5781C74.7839 26.0651 74.3984 26.4427 73.9062 26.7109C73.4167 26.9766 72.8542 27.1094 72.2188 27.1094C71.5104 27.1094 70.888 26.9427 70.3516 26.6094C69.8177 26.276 69.401 25.8021 69.1016 25.1875C68.8047 24.5729 68.6563 23.8437 68.6563 23C68.6563 22.3672 68.7409 21.7982 68.9102 21.293C69.082 20.7852 69.3242 20.3529 69.6367 19.9961C69.9492 19.6393 70.319 19.3659 70.7461 19.1758C71.1732 18.9857 71.6432 18.8906 72.1562 18.8906C72.5781 18.8906 72.9714 18.9544 73.3359 19.082C73.7031 19.207 74.0299 19.3854 74.3164 19.6172C74.6055 19.8464 74.8464 20.1211 75.0391 20.4414C75.2318 20.7591 75.3646 21.112 75.4375 21.5H74.4375ZM79.5342 27.125C78.9561 27.125 78.4574 26.9974 78.0381 26.7422C77.6214 26.4844 77.2998 26.125 77.0732 25.6641C76.8493 25.2005 76.7373 24.6615 76.7373 24.0469C76.7373 23.4323 76.8493 22.8906 77.0732 22.4219C77.2998 21.9505 77.6149 21.5833 78.0186 21.3203C78.4248 21.0547 78.8988 20.9219 79.4404 20.9219C79.7529 20.9219 80.0615 20.974 80.3662 21.0781C80.6709 21.1823 80.9482 21.3516 81.1982 21.5859C81.4482 21.8177 81.6475 22.125 81.7959 22.5078C81.9443 22.8906 82.0186 23.362 82.0186 23.9219V24.3125H77.3936V23.5156H81.0811C81.0811 23.1771 81.0133 22.875 80.8779 22.6094C80.7451 22.3437 80.555 22.1341 80.3076 21.9805C80.0628 21.8268 79.7738 21.75 79.4404 21.75C79.0732 21.75 78.7555 21.8411 78.4873 22.0234C78.2217 22.2031 78.0173 22.4375 77.874 22.7266C77.7308 23.0156 77.6592 23.3255 77.6592 23.6562V24.1875C77.6592 24.6406 77.7373 25.0247 77.8936 25.3398C78.0524 25.6523 78.2725 25.8906 78.5537 26.0547C78.835 26.2161 79.1618 26.2969 79.5342 26.2969C79.7764 26.2969 79.9951 26.263 80.1904 26.1953C80.3883 26.125 80.5589 26.0208 80.7021 25.8828C80.8454 25.7422 80.9561 25.5677 81.0342 25.3594L81.9248 25.6094C81.8311 25.9115 81.6735 26.1771 81.4521 26.4062C81.2308 26.6328 80.9574 26.8099 80.6318 26.9375C80.3063 27.0625 79.9404 27.125 79.5342 27.125ZM86.0303 21V21.7812H82.9209V21H86.0303ZM83.8271 19.5625H84.749V25.2812C84.749 25.5417 84.7868 25.737 84.8623 25.8672C84.9404 25.9948 85.0394 26.0807 85.1592 26.125C85.2816 26.1667 85.4105 26.1875 85.5459 26.1875C85.6475 26.1875 85.7308 26.1823 85.7959 26.1719C85.861 26.1589 85.9131 26.1484 85.9521 26.1406L86.1396 26.9687C86.0771 26.9922 85.9899 27.0156 85.8779 27.0391C85.766 27.0651 85.624 27.0781 85.4521 27.0781C85.1917 27.0781 84.9365 27.0221 84.6865 26.9102C84.4391 26.7982 84.2334 26.6276 84.0693 26.3984C83.9079 26.1693 83.8271 25.8802 83.8271 25.5312V19.5625ZM90.5107 27V21H91.4326V27H90.5107ZM90.9795 20C90.7998 20 90.6449 19.9388 90.5146 19.8164C90.387 19.694 90.3232 19.5469 90.3232 19.375C90.3232 19.2031 90.387 19.056 90.5146 18.9336C90.6449 18.8112 90.7998 18.75 90.9795 18.75C91.1592 18.75 91.3128 18.8112 91.4404 18.9336C91.5706 19.056 91.6357 19.2031 91.6357 19.375C91.6357 19.5469 91.5706 19.694 91.4404 19.8164C91.3128 19.9388 91.1592 20 90.9795 20ZM95.7305 21V21.7812H92.6211V21H95.7305ZM93.5273 19.5625H94.4492V25.2812C94.4492 25.5417 94.487 25.737 94.5625 25.8672C94.6406 25.9948 94.7396 26.0807 94.8594 26.125C94.9818 26.1667 95.1107 26.1875 95.2461 26.1875C95.3477 26.1875 95.431 26.1823 95.4961 26.1719C95.5612 26.1589 95.6133 26.1484 95.6523 26.1406L95.8398 26.9687C95.7773 26.9922 95.6901 27.0156 95.5781 27.0391C95.4661 27.0651 95.3242 27.0781 95.1523 27.0781C94.8919 27.0781 94.6367 27.0221 94.3867 26.9102C94.1393 26.7982 93.9336 26.6276 93.7695 26.3984C93.6081 26.1693 93.5273 25.8802 93.5273 25.5312V19.5625ZM101.133 23.3906V27H100.211V21H101.102V21.9375H101.18C101.32 21.6328 101.534 21.388 101.82 21.2031C102.107 21.0156 102.477 20.9219 102.93 20.9219C103.336 20.9219 103.691 21.0052 103.996 21.1719C104.301 21.3359 104.538 21.5859 104.707 21.9219C104.876 22.2552 104.961 22.6771 104.961 23.1875V27H104.039V23.25C104.039 22.7786 103.917 22.4115 103.672 22.1484C103.427 21.8828 103.091 21.75 102.664 21.75C102.37 21.75 102.107 21.8138 101.875 21.9414C101.646 22.069 101.465 22.2552 101.332 22.5C101.199 22.7448 101.133 23.0417 101.133 23.3906ZM109.083 27.125C108.541 27.125 108.066 26.9961 107.657 26.7383C107.251 26.4805 106.933 26.1198 106.704 25.6562C106.478 25.1927 106.364 24.651 106.364 24.0312C106.364 23.4062 106.478 22.8607 106.704 22.3945C106.933 21.9284 107.251 21.5664 107.657 21.3086C108.066 21.0508 108.541 20.9219 109.083 20.9219C109.625 20.9219 110.099 21.0508 110.505 21.3086C110.914 21.5664 111.231 21.9284 111.458 22.3945C111.687 22.8607 111.802 23.4062 111.802 24.0312C111.802 24.651 111.687 25.1927 111.458 25.6562C111.231 26.1198 110.914 26.4805 110.505 26.7383C110.099 26.9961 109.625 27.125 109.083 27.125ZM109.083 26.2969C109.494 26.2969 109.833 26.1914 110.099 25.9805C110.364 25.7695 110.561 25.4922 110.688 25.1484C110.816 24.8047 110.88 24.4323 110.88 24.0312C110.88 23.6302 110.816 23.2565 110.688 22.9102C110.561 22.5638 110.364 22.2839 110.099 22.0703C109.833 21.8568 109.494 21.75 109.083 21.75C108.672 21.75 108.333 21.8568 108.067 22.0703C107.802 22.2839 107.605 22.5638 107.478 22.9102C107.35 23.2565 107.286 23.6302 107.286 24.0312C107.286 24.4323 107.35 24.8047 107.478 25.1484C107.605 25.4922 107.802 25.7695 108.067 25.9805C108.333 26.1914 108.672 26.2969 109.083 26.2969ZM114.364 27L112.536 21H113.505L114.802 25.5938H114.864L116.146 21H117.13L118.396 25.5781H118.458L119.755 21H120.724L118.896 27H117.989L116.677 22.3906H116.583L115.271 27H114.364Z" fill="white"/>
<path d="M75.8253 41.0696C75.7424 40.8011 75.6281 40.5608 75.4822 40.3487C75.3397 40.1333 75.1674 39.9493 74.9652 39.7969C74.7663 39.6444 74.5376 39.5301 74.2791 39.4538C74.0206 39.3743 73.7389 39.3345 73.4339 39.3345C72.8871 39.3345 72.3999 39.4721 71.9723 39.7472C71.5447 40.0223 71.2083 40.4266 70.9631 40.9602C70.7211 41.4905 70.6001 42.1368 70.6001 42.8991C70.6001 43.6681 70.7211 44.3194 70.9631 44.853C71.205 45.3866 71.5414 45.7926 71.9723 46.071C72.4032 46.3461 72.9036 46.4837 73.4737 46.4837C73.9908 46.4837 74.4382 46.3842 74.8161 46.1854C75.1972 45.9865 75.4905 45.7048 75.696 45.3402C75.9015 44.9723 76.0043 44.5414 76.0043 44.0476L76.4219 44.1122H73.6577V42.6705H77.7891V43.8935C77.7891 44.7652 77.6035 45.5192 77.2322 46.1555C76.861 46.7919 76.3506 47.2824 75.701 47.6271C75.0514 47.9685 74.3056 48.1392 73.4638 48.1392C72.5258 48.1392 71.7022 47.9287 70.9929 47.5078C70.2869 47.0836 69.7351 46.482 69.3374 45.7031C68.9429 44.9209 68.7457 43.9929 68.7457 42.919C68.7457 42.0971 68.8617 41.3629 69.0938 40.7166C69.3291 40.0703 69.6572 39.5218 70.0781 39.071C70.4991 38.617 70.9929 38.2723 71.5597 38.0369C72.1264 37.7983 72.7429 37.679 73.4091 37.679C73.9725 37.679 74.4979 37.7618 74.9851 37.9276C75.4723 38.09 75.9048 38.322 76.2827 38.6236C76.6638 38.9252 76.977 39.2831 77.2223 39.6974C77.4676 40.1117 77.6283 40.5691 77.7045 41.0696H75.8253ZM82.824 48.1491C82.0783 48.1491 81.432 47.9851 80.8851 47.657C80.3382 47.3288 79.914 46.8698 79.6124 46.2798C79.3141 45.6899 79.165 45.0005 79.165 44.2116C79.165 43.4228 79.3141 42.7318 79.6124 42.1385C79.914 41.5452 80.3382 41.0845 80.8851 40.7564C81.432 40.4283 82.0783 40.2642 82.824 40.2642C83.5698 40.2642 84.2161 40.4283 84.763 40.7564C85.3098 41.0845 85.7324 41.5452 86.0307 42.1385C86.3323 42.7318 86.4831 43.4228 86.4831 44.2116C86.4831 45.0005 86.3323 45.6899 86.0307 46.2798C85.7324 46.8698 85.3098 47.3288 84.763 47.657C84.2161 47.9851 83.5698 48.1491 82.824 48.1491ZM82.834 46.7074C83.2383 46.7074 83.5764 46.5964 83.8482 46.3743C84.12 46.1489 84.3221 45.8473 84.4547 45.4695C84.5906 45.0916 84.6586 44.6707 84.6586 44.2067C84.6586 43.7393 84.5906 43.3168 84.4547 42.9389C84.3221 42.5578 84.12 42.2545 83.8482 42.0291C83.5764 41.8037 83.2383 41.6911 82.834 41.6911C82.4197 41.6911 82.075 41.8037 81.7999 42.0291C81.5281 42.2545 81.3243 42.5578 81.1884 42.9389C81.0558 43.3168 80.9895 43.7393 80.9895 44.2067C80.9895 44.6707 81.0558 45.0916 81.1884 45.4695C81.3243 45.8473 81.5281 46.1489 81.7999 46.3743C82.075 46.5964 82.4197 46.7074 82.834 46.7074ZM91.3416 48.1491C90.5959 48.1491 89.9496 47.9851 89.4027 47.657C88.8558 47.3288 88.4316 46.8698 88.13 46.2798C87.8317 45.6899 87.6825 45.0005 87.6825 44.2116C87.6825 43.4228 87.8317 42.7318 88.13 42.1385C88.4316 41.5452 88.8558 41.0845 89.4027 40.7564C89.9496 40.4283 90.5959 40.2642 91.3416 40.2642C92.0874 40.2642 92.7337 40.4283 93.2805 40.7564C93.8274 41.0845 94.25 41.5452 94.5483 42.1385C94.8499 42.7318 95.0007 43.4228 95.0007 44.2116C95.0007 45.0005 94.8499 45.6899 94.5483 46.2798C94.25 46.8698 93.8274 47.3288 93.2805 47.657C92.7337 47.9851 92.0874 48.1491 91.3416 48.1491ZM91.3516 46.7074C91.7559 46.7074 92.094 46.5964 92.3658 46.3743C92.6375 46.1489 92.8397 45.8473 92.9723 45.4695C93.1082 45.0916 93.1761 44.6707 93.1761 44.2067C93.1761 43.7393 93.1082 43.3168 92.9723 42.9389C92.8397 42.5578 92.6375 42.2545 92.3658 42.0291C92.094 41.8037 91.7559 41.6911 91.3516 41.6911C90.9373 41.6911 90.5926 41.8037 90.3175 42.0291C90.0457 42.2545 89.8419 42.5578 89.706 42.9389C89.5734 43.3168 89.5071 43.7393 89.5071 44.2067C89.5071 44.6707 89.5734 45.0916 89.706 45.4695C89.8419 45.8473 90.0457 46.1489 90.3175 46.3743C90.5926 46.5964 90.9373 46.7074 91.3516 46.7074ZM99.8493 51.0227C99.2029 51.0227 98.6478 50.9349 98.1838 50.7592C97.7198 50.5869 97.3469 50.3549 97.0652 50.0632C96.7834 49.7715 96.5879 49.4484 96.4785 49.0938L98.0993 48.701C98.1722 48.8501 98.2782 48.9976 98.4174 49.1435C98.5566 49.2926 98.7439 49.4152 98.9792 49.5114C99.2179 49.6108 99.5178 49.6605 99.8791 49.6605C100.39 49.6605 100.812 49.5362 101.147 49.2876C101.482 49.0424 101.649 48.638 101.649 48.0746V46.6278H101.559C101.467 46.8134 101.331 47.004 101.152 47.1996C100.976 47.3951 100.742 47.5592 100.451 47.6918C100.162 47.8243 99.7995 47.8906 99.362 47.8906C98.7754 47.8906 98.2434 47.7531 97.7662 47.478C97.2922 47.1996 96.9144 46.7853 96.6326 46.2351C96.3542 45.6816 96.215 44.9889 96.215 44.157C96.215 43.3184 96.3542 42.6108 96.6326 42.0341C96.9144 41.4541 97.2939 41.0149 97.7711 40.7166C98.2484 40.415 98.7804 40.2642 99.367 40.2642C99.8145 40.2642 100.182 40.3404 100.471 40.4929C100.762 40.642 100.994 40.8227 101.167 41.0348C101.339 41.2436 101.47 41.4408 101.559 41.6264H101.659V40.3636H103.434V48.1243C103.434 48.7772 103.278 49.3175 102.966 49.745C102.655 50.1726 102.229 50.4924 101.689 50.7045C101.148 50.9167 100.535 51.0227 99.8493 51.0227ZM99.8642 46.4787C100.245 46.4787 100.57 46.3859 100.839 46.2003C101.107 46.0147 101.311 45.7479 101.45 45.3999C101.589 45.0518 101.659 44.6342 101.659 44.147C101.659 43.6664 101.589 43.2455 101.45 42.8842C101.314 42.523 101.112 42.2429 100.844 42.044C100.578 41.8419 100.252 41.7408 99.8642 41.7408C99.4631 41.7408 99.1284 41.8452 98.8599 42.054C98.5914 42.2628 98.3893 42.5495 98.2534 42.9141C98.1175 43.2753 98.0495 43.6863 98.0495 44.147C98.0495 44.6143 98.1175 45.0237 98.2534 45.375C98.3926 45.723 98.5964 45.9948 98.8649 46.1903C99.1367 46.3826 99.4698 46.4787 99.8642 46.4787ZM107.078 37.8182V48H105.278V37.8182H107.078ZM112.309 48.1491C111.544 48.1491 110.882 47.9901 110.326 47.6719C109.772 47.3504 109.346 46.8963 109.048 46.3097C108.75 45.7197 108.6 45.0253 108.6 44.2266C108.6 43.4411 108.75 42.7517 109.048 42.1584C109.35 41.5618 109.77 41.0978 110.311 40.7663C110.851 40.4316 111.486 40.2642 112.215 40.2642C112.685 40.2642 113.13 40.3404 113.547 40.4929C113.968 40.642 114.339 40.8741 114.661 41.1889C114.986 41.5038 115.241 41.9048 115.426 42.392C115.612 42.8759 115.705 43.4527 115.705 44.1222V44.674H109.446V43.4609H113.98C113.976 43.1162 113.902 42.8097 113.756 42.5412C113.61 42.2694 113.406 42.0556 113.145 41.8999C112.886 41.7441 112.584 41.6662 112.24 41.6662C111.872 41.6662 111.549 41.7557 111.27 41.9347C110.992 42.1103 110.775 42.3423 110.619 42.6307C110.467 42.9157 110.389 43.2289 110.385 43.5703V44.6293C110.385 45.0734 110.467 45.4545 110.629 45.7727C110.791 46.0876 111.018 46.3295 111.31 46.4986C111.602 46.6643 111.943 46.7472 112.334 46.7472C112.596 46.7472 112.833 46.7107 113.045 46.6378C113.257 46.5616 113.441 46.4505 113.597 46.3047C113.753 46.1589 113.87 45.9782 113.95 45.7628L115.63 45.9517C115.524 46.3958 115.322 46.7836 115.024 47.1151C114.729 47.4432 114.351 47.6984 113.89 47.8807C113.43 48.0597 112.903 48.1491 112.309 48.1491ZM120.78 48V37.8182H124.598C125.38 37.8182 126.036 37.964 126.567 38.2557C127.1 38.5473 127.503 38.9484 127.775 39.4588C128.05 39.9659 128.187 40.5426 128.187 41.1889C128.187 41.8419 128.05 42.4219 127.775 42.929C127.5 43.4361 127.094 43.8355 126.557 44.1271C126.02 44.4155 125.358 44.5597 124.573 44.5597H122.042V43.0433H124.324C124.782 43.0433 125.156 42.9638 125.448 42.8047C125.74 42.6456 125.955 42.4268 126.094 42.1484C126.237 41.87 126.308 41.5502 126.308 41.1889C126.308 40.8277 126.237 40.5095 126.094 40.2344C125.955 39.9593 125.738 39.7455 125.443 39.593C125.151 39.4373 124.775 39.3594 124.314 39.3594H122.624V48H120.78ZM131.51 37.8182V48H129.71V37.8182H131.51ZM135.558 48.1541C135.074 48.1541 134.638 48.0679 134.25 47.8956C133.866 47.7199 133.561 47.4614 133.335 47.12C133.113 46.7786 133.002 46.3577 133.002 45.8572C133.002 45.4264 133.082 45.0701 133.241 44.7884C133.4 44.5066 133.617 44.2812 133.892 44.1122C134.167 43.9432 134.477 43.8156 134.822 43.7294C135.17 43.6399 135.53 43.5753 135.901 43.5355C136.348 43.4891 136.711 43.4477 136.99 43.4112C137.268 43.3714 137.47 43.3118 137.596 43.2322C137.725 43.1494 137.79 43.0218 137.79 42.8494V42.8196C137.79 42.4451 137.679 42.1551 137.457 41.9496C137.235 41.7441 136.915 41.6413 136.497 41.6413C136.057 41.6413 135.707 41.7375 135.448 41.9297C135.193 42.1219 135.021 42.349 134.931 42.6108L133.251 42.3722C133.383 41.9081 133.602 41.5204 133.907 41.2088C134.212 40.8939 134.585 40.6586 135.026 40.5028C135.467 40.3438 135.954 40.2642 136.487 40.2642C136.855 40.2642 137.222 40.3073 137.586 40.3935C137.951 40.4796 138.284 40.6222 138.585 40.821C138.887 41.0166 139.129 41.2834 139.311 41.6214C139.497 41.9595 139.59 42.3821 139.59 42.8892V48H137.86V46.951H137.8C137.691 47.1631 137.536 47.362 137.338 47.5476C137.142 47.7299 136.895 47.8774 136.597 47.9901C136.302 48.0994 135.955 48.1541 135.558 48.1541ZM136.025 46.8317C136.386 46.8317 136.7 46.7604 136.965 46.6179C137.23 46.4721 137.434 46.2798 137.576 46.0412C137.722 45.8026 137.795 45.5424 137.795 45.2607V44.3608C137.739 44.4072 137.642 44.4503 137.507 44.4901C137.374 44.5298 137.225 44.5646 137.059 44.5945C136.893 44.6243 136.729 44.6508 136.567 44.674C136.405 44.6972 136.264 44.7171 136.144 44.7337C135.876 44.7701 135.636 44.8298 135.423 44.9126C135.211 44.9955 135.044 45.1115 134.921 45.2607C134.799 45.4065 134.737 45.5954 134.737 45.8274C134.737 46.1589 134.858 46.4091 135.1 46.5781C135.342 46.7472 135.651 46.8317 136.025 46.8317ZM142.244 50.8636C141.999 50.8636 141.772 50.8438 141.563 50.804C141.358 50.7675 141.194 50.7244 141.071 50.6747L141.489 49.2727C141.751 49.349 141.984 49.3854 142.19 49.3821C142.395 49.3788 142.576 49.3142 142.732 49.1882C142.891 49.0656 143.025 48.8601 143.134 48.5717L143.289 48.1591L140.519 40.3636H142.428L144.188 46.1307H144.268L146.033 40.3636H147.947L144.889 48.9247C144.747 49.3291 144.558 49.6754 144.323 49.9638C144.087 50.2554 143.799 50.4775 143.458 50.63C143.119 50.7857 142.715 50.8636 142.244 50.8636Z" fill="white"/>
<defs>
<clipPath id="clip0_2992_767">
<rect width="32" height="32" fill="white" transform="translate(20 18.5)"/>
</clipPath>
</defs>
</svg>
