<svg width="176" height="69" viewBox="0 0 176 69" fill="none" xmlns="http://www.w3.org/2000/svg">
<rect width="176" height="69" rx="3" fill="#303639"/>
<g clip-path="url(#clip0_2992_774)">
<path d="M49.056 43.438C48.5893 44.5249 48.013 45.5614 47.336 46.5313C46.4306 47.8213 45.69 48.714 45.1193 49.21C44.2346 50.0233 43.286 50.4407 42.2706 50.464C41.542 50.464 40.6633 50.2567 39.64 49.836C38.6133 49.4173 37.67 49.2093 36.8073 49.2093C35.9026 49.2093 34.9326 49.4173 33.8946 49.836C32.8553 50.2567 32.018 50.476 31.378 50.4973C30.4046 50.5393 29.434 50.1107 28.4646 49.21C27.8466 48.67 27.074 47.746 26.1473 46.4367C25.1533 45.038 24.336 43.4167 23.696 41.5673C23.0106 39.5707 22.6666 37.6367 22.6666 35.7647C22.6666 33.62 23.13 31.7707 24.058 30.2207C24.788 28.9753 25.758 27.994 26.9726 27.2727C28.1643 26.5596 29.524 26.1758 30.9126 26.1607C31.686 26.1607 32.7 26.4 33.9606 26.87C35.2173 27.3413 36.024 27.5807 36.378 27.5807C36.642 27.5807 37.5386 27.3007 39.058 26.7433C40.4953 26.226 41.708 26.012 42.7013 26.0967C45.394 26.314 47.4166 27.3753 48.7613 29.2873C46.354 30.746 45.1626 32.7893 45.1866 35.4107C45.208 37.4527 45.9486 39.152 47.4046 40.5007C48.0646 41.1273 48.8013 41.6113 49.6206 41.9547C49.4488 42.4552 49.2605 42.9499 49.056 43.438ZM42.8813 19.1407C42.8813 20.7407 42.2966 22.2353 41.1313 23.618C39.7246 25.2627 38.024 26.2127 36.1793 26.0627C36.1545 25.8614 36.142 25.6588 36.142 25.456C36.142 23.92 36.8106 22.276 37.9986 20.9313C38.592 20.2507 39.3453 19.6847 40.26 19.2333C41.1733 18.7887 42.036 18.5427 42.848 18.5C42.8713 18.714 42.8813 18.928 42.8813 19.14V19.1407Z" fill="white"/>
</g>
<path d="M74.4375 21.5C74.3516 21.237 74.2383 21.0013 74.0977 20.793C73.9596 20.582 73.7943 20.4023 73.6016 20.2539C73.4115 20.1055 73.1953 19.9922 72.9531 19.9141C72.7109 19.8359 72.4453 19.7969 72.1562 19.7969C71.6823 19.7969 71.2513 19.9193 70.8633 20.1641C70.4753 20.4089 70.1667 20.7695 69.9375 21.2461C69.7083 21.7227 69.5938 22.3073 69.5938 23C69.5938 23.6927 69.7096 24.2773 69.9414 24.7539C70.1732 25.2305 70.487 25.5911 70.8828 25.8359C71.2786 26.0807 71.724 26.2031 72.2188 26.2031C72.6771 26.2031 73.0807 26.1055 73.4297 25.9102C73.7813 25.7122 74.0547 25.4336 74.25 25.0742C74.4479 24.7122 74.5469 24.2865 74.5469 23.7969L74.8438 23.8594H72.4375V23H75.4844V23.8594C75.4844 24.5182 75.3438 25.0911 75.0625 25.5781C74.7839 26.0651 74.3984 26.4427 73.9062 26.7109C73.4167 26.9766 72.8542 27.1094 72.2188 27.1094C71.5104 27.1094 70.888 26.9427 70.3516 26.6094C69.8177 26.276 69.401 25.8021 69.1016 25.1875C68.8047 24.5729 68.6563 23.8437 68.6563 23C68.6563 22.3672 68.7409 21.7982 68.9102 21.293C69.082 20.7852 69.3242 20.3529 69.6367 19.9961C69.9492 19.6393 70.319 19.3659 70.7461 19.1758C71.1732 18.9857 71.6432 18.8906 72.1562 18.8906C72.5781 18.8906 72.9714 18.9544 73.3359 19.082C73.7031 19.207 74.0299 19.3854 74.3164 19.6172C74.6055 19.8464 74.8464 20.1211 75.0391 20.4414C75.2318 20.7591 75.3646 21.112 75.4375 21.5H74.4375ZM79.5342 27.125C78.9561 27.125 78.4574 26.9974 78.0381 26.7422C77.6214 26.4844 77.2998 26.125 77.0732 25.6641C76.8493 25.2005 76.7373 24.6615 76.7373 24.0469C76.7373 23.4323 76.8493 22.8906 77.0732 22.4219C77.2998 21.9505 77.6149 21.5833 78.0186 21.3203C78.4248 21.0547 78.8988 20.9219 79.4404 20.9219C79.7529 20.9219 80.0615 20.974 80.3662 21.0781C80.6709 21.1823 80.9482 21.3516 81.1982 21.5859C81.4482 21.8177 81.6475 22.125 81.7959 22.5078C81.9443 22.8906 82.0186 23.362 82.0186 23.9219V24.3125H77.3936V23.5156H81.0811C81.0811 23.1771 81.0133 22.875 80.8779 22.6094C80.7451 22.3437 80.555 22.1341 80.3076 21.9805C80.0628 21.8268 79.7738 21.75 79.4404 21.75C79.0732 21.75 78.7555 21.8411 78.4873 22.0234C78.2217 22.2031 78.0173 22.4375 77.874 22.7266C77.7308 23.0156 77.6592 23.3255 77.6592 23.6562V24.1875C77.6592 24.6406 77.7373 25.0247 77.8936 25.3398C78.0524 25.6523 78.2725 25.8906 78.5537 26.0547C78.835 26.2161 79.1618 26.2969 79.5342 26.2969C79.7764 26.2969 79.9951 26.263 80.1904 26.1953C80.3883 26.125 80.5589 26.0208 80.7021 25.8828C80.8454 25.7422 80.9561 25.5677 81.0342 25.3594L81.9248 25.6094C81.8311 25.9115 81.6735 26.1771 81.4521 26.4062C81.2308 26.6328 80.9574 26.8099 80.6318 26.9375C80.3063 27.0625 79.9404 27.125 79.5342 27.125ZM86.0303 21V21.7812H82.9209V21H86.0303ZM83.8271 19.5625H84.749V25.2812C84.749 25.5417 84.7868 25.737 84.8623 25.8672C84.9404 25.9948 85.0394 26.0807 85.1592 26.125C85.2816 26.1667 85.4105 26.1875 85.5459 26.1875C85.6475 26.1875 85.7308 26.1823 85.7959 26.1719C85.861 26.1589 85.9131 26.1484 85.9521 26.1406L86.1396 26.9687C86.0771 26.9922 85.9899 27.0156 85.8779 27.0391C85.766 27.0651 85.624 27.0781 85.4521 27.0781C85.1917 27.0781 84.9365 27.0221 84.6865 26.9102C84.4391 26.7982 84.2334 26.6276 84.0693 26.3984C83.9079 26.1693 83.8271 25.8802 83.8271 25.5312V19.5625ZM90.5107 27V21H91.4326V27H90.5107ZM90.9795 20C90.7998 20 90.6449 19.9388 90.5146 19.8164C90.387 19.694 90.3232 19.5469 90.3232 19.375C90.3232 19.2031 90.387 19.056 90.5146 18.9336C90.6449 18.8112 90.7998 18.75 90.9795 18.75C91.1592 18.75 91.3128 18.8112 91.4404 18.9336C91.5706 19.056 91.6357 19.2031 91.6357 19.375C91.6357 19.5469 91.5706 19.694 91.4404 19.8164C91.3128 19.9388 91.1592 20 90.9795 20ZM95.7305 21V21.7812H92.6211V21H95.7305ZM93.5273 19.5625H94.4492V25.2812C94.4492 25.5417 94.487 25.737 94.5625 25.8672C94.6406 25.9948 94.7396 26.0807 94.8594 26.125C94.9818 26.1667 95.1107 26.1875 95.2461 26.1875C95.3477 26.1875 95.431 26.1823 95.4961 26.1719C95.5612 26.1589 95.6133 26.1484 95.6523 26.1406L95.8398 26.9687C95.7773 26.9922 95.6901 27.0156 95.5781 27.0391C95.4661 27.0651 95.3242 27.0781 95.1523 27.0781C94.8919 27.0781 94.6367 27.0221 94.3867 26.9102C94.1393 26.7982 93.9336 26.6276 93.7695 26.3984C93.6081 26.1693 93.5273 25.8802 93.5273 25.5312V19.5625ZM101.133 23.3906V27H100.211V21H101.102V21.9375H101.18C101.32 21.6328 101.534 21.388 101.82 21.2031C102.107 21.0156 102.477 20.9219 102.93 20.9219C103.336 20.9219 103.691 21.0052 103.996 21.1719C104.301 21.3359 104.538 21.5859 104.707 21.9219C104.876 22.2552 104.961 22.6771 104.961 23.1875V27H104.039V23.25C104.039 22.7786 103.917 22.4115 103.672 22.1484C103.427 21.8828 103.091 21.75 102.664 21.75C102.37 21.75 102.107 21.8138 101.875 21.9414C101.646 22.069 101.465 22.2552 101.332 22.5C101.199 22.7448 101.133 23.0417 101.133 23.3906ZM109.083 27.125C108.541 27.125 108.066 26.9961 107.657 26.7383C107.251 26.4805 106.933 26.1198 106.704 25.6562C106.478 25.1927 106.364 24.651 106.364 24.0312C106.364 23.4062 106.478 22.8607 106.704 22.3945C106.933 21.9284 107.251 21.5664 107.657 21.3086C108.066 21.0508 108.541 20.9219 109.083 20.9219C109.625 20.9219 110.099 21.0508 110.505 21.3086C110.914 21.5664 111.231 21.9284 111.458 22.3945C111.687 22.8607 111.802 23.4062 111.802 24.0312C111.802 24.651 111.687 25.1927 111.458 25.6562C111.231 26.1198 110.914 26.4805 110.505 26.7383C110.099 26.9961 109.625 27.125 109.083 27.125ZM109.083 26.2969C109.494 26.2969 109.833 26.1914 110.099 25.9805C110.364 25.7695 110.561 25.4922 110.688 25.1484C110.816 24.8047 110.88 24.4323 110.88 24.0312C110.88 23.6302 110.816 23.2565 110.688 22.9102C110.561 22.5638 110.364 22.2839 110.099 22.0703C109.833 21.8568 109.494 21.75 109.083 21.75C108.672 21.75 108.333 21.8568 108.067 22.0703C107.802 22.2839 107.605 22.5638 107.478 22.9102C107.35 23.2565 107.286 23.6302 107.286 24.0312C107.286 24.4323 107.35 24.8047 107.478 25.1484C107.605 25.4922 107.802 25.7695 108.067 25.9805C108.333 26.1914 108.672 26.2969 109.083 26.2969ZM114.364 27L112.536 21H113.505L114.802 25.5938H114.864L116.146 21H117.13L118.396 25.5781H118.458L119.755 21H120.724L118.896 27H117.989L116.677 22.3906H116.583L115.271 27H114.364Z" fill="white"/>
<path d="M70.3118 48H68.343L71.9276 37.8182H74.2045L77.794 48H75.8253L73.1058 39.9062H73.0263L70.3118 48ZM70.3764 44.0078H75.7457V45.4893H70.3764V44.0078ZM79.0556 50.8636V40.3636H80.8255V41.6264H80.9299C81.0227 41.4408 81.1536 41.2436 81.3226 41.0348C81.4917 40.8227 81.7203 40.642 82.0087 40.4929C82.2971 40.3404 82.665 40.2642 83.1124 40.2642C83.7024 40.2642 84.2343 40.415 84.7083 40.7166C85.1855 41.0149 85.5634 41.4574 85.8418 42.044C86.1235 42.6274 86.2644 43.3433 86.2644 44.1918C86.2644 45.0303 86.1268 45.7429 85.8517 46.3295C85.5766 46.9162 85.2021 47.3636 84.7282 47.6719C84.2542 47.9801 83.7173 48.1342 83.1174 48.1342C82.6799 48.1342 82.3169 48.0613 82.0286 47.9155C81.7402 47.7696 81.5082 47.594 81.3326 47.3885C81.1602 47.1797 81.026 46.9825 80.9299 46.7969H80.8553V50.8636H79.0556ZM80.8205 44.1818C80.8205 44.6757 80.8901 45.1082 81.0293 45.4794C81.1718 45.8506 81.3757 46.1406 81.6408 46.3494C81.9093 46.5549 82.2341 46.6577 82.6152 46.6577C83.013 46.6577 83.3461 46.5516 83.6145 46.3395C83.883 46.1241 84.0852 45.8307 84.2211 45.4595C84.3603 45.085 84.4299 44.6591 84.4299 44.1818C84.4299 43.7079 84.3619 43.2869 84.226 42.919C84.0901 42.5511 83.888 42.2628 83.6195 42.054C83.351 41.8452 83.0163 41.7408 82.6152 41.7408C82.2308 41.7408 81.9043 41.8419 81.6358 42.044C81.3674 42.2462 81.1635 42.5296 81.0243 42.8942C80.8884 43.2588 80.8205 43.688 80.8205 44.1818ZM87.8056 50.8636V40.3636H89.5755V41.6264H89.6799C89.7727 41.4408 89.9036 41.2436 90.0726 41.0348C90.2417 40.8227 90.4703 40.642 90.7587 40.4929C91.0471 40.3404 91.415 40.2642 91.8624 40.2642C92.4524 40.2642 92.9843 40.415 93.4583 40.7166C93.9355 41.0149 94.3134 41.4574 94.5918 42.044C94.8735 42.6274 95.0144 43.3433 95.0144 44.1918C95.0144 45.0303 94.8768 45.7429 94.6017 46.3295C94.3266 46.9162 93.9521 47.3636 93.4782 47.6719C93.0042 47.9801 92.4673 48.1342 91.8674 48.1342C91.4299 48.1342 91.0669 48.0613 90.7786 47.9155C90.4902 47.7696 90.2582 47.594 90.0826 47.3885C89.9102 47.1797 89.776 46.9825 89.6799 46.7969H89.6053V50.8636H87.8056ZM89.5705 44.1818C89.5705 44.6757 89.6401 45.1082 89.7793 45.4794C89.9218 45.8506 90.1257 46.1406 90.3908 46.3494C90.6593 46.5549 90.9841 46.6577 91.3652 46.6577C91.763 46.6577 92.0961 46.5516 92.3645 46.3395C92.633 46.1241 92.8352 45.8307 92.9711 45.4595C93.1103 45.085 93.1799 44.6591 93.1799 44.1818C93.1799 43.7079 93.1119 43.2869 92.976 42.919C92.8401 42.5511 92.638 42.2628 92.3695 42.054C92.101 41.8452 91.7663 41.7408 91.3652 41.7408C90.9808 41.7408 90.6543 41.8419 90.3858 42.044C90.1174 42.2462 89.9135 42.5296 89.7743 42.8942C89.6384 43.2588 89.5705 43.688 89.5705 44.1818ZM105.641 40.6172C105.595 40.183 105.399 39.8449 105.055 39.603C104.713 39.361 104.269 39.2401 103.722 39.2401C103.338 39.2401 103.008 39.2981 102.733 39.4141C102.458 39.5301 102.247 39.6875 102.101 39.8864C101.956 40.0852 101.881 40.3123 101.878 40.5675C101.878 40.7796 101.926 40.9635 102.022 41.1193C102.121 41.2751 102.256 41.4077 102.425 41.517C102.594 41.6231 102.781 41.7126 102.986 41.7855C103.192 41.8584 103.399 41.9197 103.608 41.9695L104.562 42.2081C104.947 42.2976 105.316 42.4186 105.671 42.571C106.029 42.7235 106.349 42.9157 106.631 43.1477C106.916 43.3797 107.141 43.6598 107.307 43.9879C107.472 44.3161 107.555 44.7005 107.555 45.1413C107.555 45.7379 107.403 46.2633 107.098 46.7173C106.793 47.1681 106.352 47.5211 105.775 47.7763C105.202 48.0282 104.508 48.1541 103.692 48.1541C102.9 48.1541 102.212 48.0315 101.629 47.7862C101.049 47.541 100.595 47.183 100.267 46.7124C99.9421 46.2417 99.7664 45.6683 99.7399 44.9922H101.555C101.581 45.3468 101.69 45.6418 101.883 45.8771C102.075 46.1125 102.325 46.2881 102.633 46.4041C102.945 46.5201 103.293 46.5781 103.677 46.5781C104.078 46.5781 104.43 46.5185 104.731 46.3991C105.036 46.2765 105.275 46.1075 105.447 45.892C105.62 45.6733 105.707 45.4181 105.711 45.1264C105.707 44.8613 105.63 44.6425 105.477 44.4702C105.325 44.2945 105.111 44.1487 104.836 44.0327C104.564 43.9134 104.246 43.8073 103.881 43.7145L102.723 43.4162C101.884 43.2008 101.221 42.8743 100.734 42.4368C100.25 41.996 100.008 41.411 100.008 40.6818C100.008 40.0819 100.171 39.5566 100.496 39.1058C100.824 38.6551 101.269 38.3054 101.833 38.0568C102.396 37.8049 103.034 37.679 103.747 37.679C104.47 37.679 105.103 37.8049 105.646 38.0568C106.193 38.3054 106.622 38.6518 106.934 39.0959C107.245 39.5367 107.406 40.0438 107.416 40.6172H105.641ZM112.933 40.3636V41.7557H108.543V40.3636H112.933ZM109.627 38.5341H111.427V45.7031C111.427 45.9451 111.463 46.1307 111.536 46.2599C111.612 46.3859 111.712 46.4721 111.835 46.5185C111.957 46.5649 112.093 46.5881 112.242 46.5881C112.355 46.5881 112.458 46.5798 112.55 46.5632C112.647 46.5466 112.719 46.5317 112.769 46.5185L113.072 47.9254C112.976 47.9586 112.839 47.995 112.66 48.0348C112.484 48.0746 112.269 48.0978 112.013 48.1044C111.563 48.1177 111.157 48.0497 110.795 47.9006C110.434 47.7481 110.147 47.5128 109.935 47.1946C109.727 46.8764 109.624 46.4787 109.627 46.0014V38.5341ZM117.687 48.1491C116.942 48.1491 116.295 47.9851 115.748 47.657C115.202 47.3288 114.777 46.8698 114.476 46.2798C114.177 45.6899 114.028 45.0005 114.028 44.2116C114.028 43.4228 114.177 42.7318 114.476 42.1385C114.777 41.5452 115.202 41.0845 115.748 40.7564C116.295 40.4283 116.942 40.2642 117.687 40.2642C118.433 40.2642 119.079 40.4283 119.626 40.7564C120.173 41.0845 120.596 41.5452 120.894 42.1385C121.196 42.7318 121.346 43.4228 121.346 44.2116C121.346 45.0005 121.196 45.6899 120.894 46.2798C120.596 46.8698 120.173 47.3288 119.626 47.657C119.079 47.9851 118.433 48.1491 117.687 48.1491ZM117.697 46.7074C118.102 46.7074 118.44 46.5964 118.711 46.3743C118.983 46.1489 119.185 45.8473 119.318 45.4695C119.454 45.0916 119.522 44.6707 119.522 44.2067C119.522 43.7393 119.454 43.3168 119.318 42.9389C119.185 42.5578 118.983 42.2545 118.711 42.0291C118.44 41.8037 118.102 41.6911 117.697 41.6911C117.283 41.6911 116.938 41.8037 116.663 42.0291C116.391 42.2545 116.188 42.5578 116.052 42.9389C115.919 43.3168 115.853 43.7393 115.853 44.2067C115.853 44.6707 115.919 45.0916 116.052 45.4695C116.188 45.8473 116.391 46.1489 116.663 46.3743C116.938 46.5964 117.283 46.7074 117.697 46.7074ZM122.874 48V40.3636H124.619V41.6364H124.699C124.838 41.1955 125.076 40.8558 125.414 40.6172C125.756 40.3752 126.145 40.2543 126.583 40.2543C126.682 40.2543 126.793 40.2592 126.916 40.2692C127.042 40.2758 127.146 40.2874 127.229 40.304V41.9595C127.153 41.933 127.032 41.9098 126.866 41.8899C126.704 41.8667 126.546 41.8551 126.394 41.8551C126.066 41.8551 125.771 41.9264 125.509 42.0689C125.25 42.2081 125.047 42.402 124.897 42.6506C124.748 42.8991 124.674 43.1858 124.674 43.5107V48H122.874ZM131.491 48.1491C130.725 48.1491 130.064 47.9901 129.507 47.6719C128.954 47.3504 128.528 46.8963 128.23 46.3097C127.931 45.7197 127.782 45.0253 127.782 44.2266C127.782 43.4411 127.931 42.7517 128.23 42.1584C128.531 41.5618 128.952 41.0978 129.492 40.7663C130.033 40.4316 130.667 40.2642 131.396 40.2642C131.867 40.2642 132.311 40.3404 132.729 40.4929C133.15 40.642 133.521 40.8741 133.843 41.1889C134.167 41.5038 134.423 41.9048 134.608 42.392C134.794 42.8759 134.887 43.4527 134.887 44.1222V44.674H128.627V43.4609H133.161C133.158 43.1162 133.084 42.8097 132.938 42.5412C132.792 42.2694 132.588 42.0556 132.326 41.8999C132.068 41.7441 131.766 41.6662 131.421 41.6662C131.053 41.6662 130.73 41.7557 130.452 41.9347C130.173 42.1103 129.956 42.3423 129.801 42.6307C129.648 42.9157 129.57 43.2289 129.567 43.5703V44.6293C129.567 45.0734 129.648 45.4545 129.811 45.7727C129.973 46.0876 130.2 46.3295 130.492 46.4986C130.783 46.6643 131.125 46.7472 131.516 46.7472C131.778 46.7472 132.015 46.7107 132.227 46.6378C132.439 46.5616 132.623 46.4505 132.779 46.3047C132.934 46.1589 133.052 45.9782 133.132 45.7628L134.812 45.9517C134.706 46.3958 134.504 46.7836 134.205 47.1151C133.91 47.4432 133.533 47.6984 133.072 47.8807C132.611 48.0597 132.084 48.1491 131.491 48.1491Z" fill="white"/>
<defs>
<clipPath id="clip0_2992_774">
<rect width="32" height="32" fill="white" transform="translate(20 18.5)"/>
</clipPath>
</defs>
</svg>
